<svg width="120" height="41" viewBox="0 0 120 41" fill="none" xmlns="http://www.w3.org/2000/svg">
<g clip-path="url(#clip0_10_385)">
<path d="M110.455 0.700325H9.85475C9.48805 0.700325 9.12575 0.700325 8.76002 0.702325C8.45387 0.704325 8.15016 0.710135 7.84107 0.715025C7.16958 0.722927 6.49967 0.782002 5.83717 0.891735C5.17559 1.00386 4.53474 1.21524 3.93629 1.51874C3.33857 1.8248 2.79241 2.22249 2.31764 2.6974C1.84037 3.17096 1.44253 3.71834 1.13942 4.31849C0.835469 4.91743 0.624709 5.55926 0.514418 6.22181C0.403079 6.88351 0.343167 7.55285 0.335218 8.22381C0.325938 8.53041 0.324958 8.83803 0.320068 9.14466V32.2589C0.324958 32.5694 0.325938 32.8702 0.335218 33.1808C0.343169 33.8517 0.403082 34.5211 0.514418 35.1827C0.624404 35.8457 0.835177 36.4879 1.13942 37.087C1.44239 37.6852 1.84029 38.2304 2.31764 38.7013C2.79061 39.1783 3.33712 39.5763 3.93629 39.88C4.53474 40.1843 5.17552 40.397 5.83717 40.5108C6.49979 40.6197 7.16963 40.6788 7.84107 40.6876C8.15016 40.6944 8.45387 40.6983 8.76002 40.6983C9.12574 40.7003 9.48807 40.7003 9.85475 40.7003H110.455C110.814 40.7003 111.179 40.7003 111.539 40.6983C111.844 40.6983 112.156 40.6944 112.461 40.6876C113.131 40.6792 113.799 40.6201 114.461 40.5108C115.125 40.3962 115.768 40.1836 116.369 39.88C116.968 39.5761 117.514 39.1782 117.986 38.7013C118.462 38.2285 118.861 37.6838 119.168 37.087C119.47 36.4874 119.678 35.8453 119.787 35.1827C119.898 34.521 119.96 33.8518 119.972 33.1808C119.976 32.8702 119.976 32.5694 119.976 32.2589C119.984 31.8956 119.984 31.5343 119.984 31.1651V10.2365C119.984 9.87024 119.984 9.50696 119.976 9.14466C119.976 8.83803 119.976 8.53041 119.972 8.22377C119.96 7.55275 119.898 6.88356 119.787 6.22177C119.678 5.55961 119.469 4.91783 119.168 4.31845C118.55 3.11552 117.572 2.13635 116.369 1.51865C115.768 1.21589 115.124 1.00457 114.461 0.891645C113.8 0.781428 113.131 0.722333 112.461 0.714885C112.156 0.710005 111.844 0.704145 111.539 0.702195C111.179 0.700195 110.814 0.700325 110.455 0.700325Z" fill="#A6A6A6"/>
<path d="M8.76487 39.8252C8.46019 39.8252 8.16287 39.8213 7.86058 39.8145C7.23437 39.8063 6.60961 39.7518 5.99144 39.6514C5.41503 39.5521 4.85665 39.3675 4.3347 39.1035C3.81755 38.8417 3.34586 38.4985 2.9377 38.0869C2.52364 37.6802 2.17892 37.2084 1.91719 36.6904C1.65258 36.169 1.46946 35.6101 1.37419 35.0332C1.27132 34.4133 1.21566 33.7865 1.20769 33.1582C1.20135 32.9473 1.19305 32.2451 1.19305 32.2451V9.14454C1.19305 9.14454 1.20189 8.45312 1.20774 8.25C1.21537 7.62268 1.27071 6.99685 1.37327 6.37793C1.46871 5.79945 1.65198 5.23894 1.91673 4.71583C2.1775 4.19814 2.52031 3.72606 2.93187 3.31788C3.34298 2.90582 3.81618 2.5608 4.33421 2.29541C4.85496 2.03229 5.41229 1.84893 5.98753 1.75147C6.60773 1.65003 7.23465 1.59519 7.86304 1.58741L8.76536 1.5752H111.534L112.447 1.5879C113.07 1.59529 113.691 1.64965 114.305 1.75049C114.886 1.84917 115.45 2.03381 115.976 2.29834C117.014 2.83318 117.859 3.67936 118.391 4.71827C118.652 5.23777 118.832 5.7937 118.927 6.36719C119.03 6.99119 119.088 7.62193 119.1 8.2544C119.103 8.5376 119.103 8.84179 119.103 9.14454C119.111 9.51954 119.111 9.87646 119.111 10.2363V31.165C119.111 31.5283 119.111 31.8828 119.103 32.2402C119.103 32.5654 119.103 32.8633 119.099 33.1699C119.088 33.7911 119.031 34.4106 118.928 35.0234C118.835 35.6045 118.653 36.1677 118.388 36.6934C118.125 37.2058 117.782 37.6735 117.373 38.0791C116.964 38.4929 116.492 38.8381 115.973 39.1016C115.448 39.3676 114.886 39.5529 114.305 39.6514C113.687 39.7524 113.062 39.8069 112.436 39.8145C112.143 39.8213 111.837 39.8252 111.539 39.8252L110.455 39.8272L8.76487 39.8252Z" fill="black"/>
<path d="M25.0889 21.001C25.0997 20.1664 25.3214 19.348 25.7334 18.622C26.1454 17.8961 26.7344 17.2861 27.4455 16.849C26.9938 16.2038 26.3978 15.6729 25.705 15.2983C25.0122 14.9237 24.2415 14.7159 23.4543 14.6913C21.7751 14.515 20.1471 15.6961 19.2914 15.6961C18.4192 15.6961 17.1017 14.7088 15.6829 14.738C14.7653 14.7676 13.8709 15.0345 13.087 15.5125C12.3032 15.9906 11.6565 16.6635 11.21 17.4658C9.27602 20.8143 10.7186 25.7353 12.5712 28.4419C13.4981 29.7673 14.5814 31.2477 15.9988 31.1952C17.3859 31.1377 17.9039 30.3107 19.5782 30.3107C21.237 30.3107 21.723 31.1952 23.1692 31.1618C24.6576 31.1377 25.5954 29.8306 26.4898 28.4927C27.1557 27.5483 27.6682 26.5046 28.0082 25.4002C27.1435 25.0345 26.4056 24.4223 25.8864 23.64C25.3673 22.8577 25.0899 21.9399 25.0889 21.001Z" fill="white"/>
<path d="M22.3573 12.911C23.1689 11.9368 23.5687 10.6846 23.4719 9.42041C22.232 9.55063 21.0868 10.1432 20.2643 11.08C19.8621 11.5377 19.5541 12.0701 19.3579 12.6469C19.1616 13.2237 19.081 13.8335 19.1206 14.4414C19.7407 14.4478 20.3542 14.3134 20.9149 14.0483C21.4755 13.7832 21.9687 13.3944 22.3573 12.911Z" fill="white"/>
<path d="M42.6223 27.8399H37.8889L36.7522 31.1963H34.7473L39.2307 18.7783H41.3137L45.7971 31.1963H43.758L42.6223 27.8399ZM38.3791 26.291H42.1311L40.2815 20.8438H40.2298L38.3791 26.291Z" fill="white"/>
<path d="M55.4798 26.6701C55.4798 29.4836 53.9739 31.2912 51.7014 31.2912C51.1258 31.3213 50.5533 31.1887 50.0495 30.9086C49.5457 30.6285 49.131 30.2121 48.8528 29.7072H48.8098V34.1916H46.9514V22.1428H48.7503V23.6486H48.7845C49.0754 23.1462 49.4971 22.732 50.0048 22.4501C50.5124 22.1683 51.0869 22.0293 51.6673 22.0481C53.9651 22.0481 55.4798 23.8645 55.4798 26.6701ZM53.5696 26.6701C53.5696 24.8371 52.6223 23.632 51.177 23.632C49.7571 23.632 48.802 24.8625 48.802 26.6701C48.802 28.4944 49.7571 29.716 51.177 29.716C52.6223 29.716 53.5696 28.5197 53.5696 26.6701Z" fill="white"/>
<path d="M65.4445 26.6701C65.4445 29.4836 63.9387 31.2912 61.6662 31.2912C61.0906 31.3213 60.5181 31.1887 60.0143 30.9086C59.5105 30.6284 59.0958 30.2121 58.8176 29.7072H58.7746V34.1916H56.9162V22.1428H58.715V23.6486H58.7492C59.0402 23.1462 59.4619 22.732 59.9695 22.4501C60.4771 22.1683 61.0517 22.0293 61.632 22.0481C63.9299 22.0481 65.4445 23.8645 65.4445 26.6701ZM63.5344 26.6701C63.5344 24.8371 62.5871 23.632 61.1418 23.632C59.7219 23.632 58.7668 24.8625 58.7668 26.6701C58.7668 28.4943 59.7219 29.716 61.1418 29.716C62.5871 29.716 63.5344 28.5197 63.5344 26.6701Z" fill="white"/>
<path d="M72.0305 27.7364C72.1682 28.9678 73.3645 29.7764 74.9993 29.7764C76.5657 29.7764 77.6927 28.9678 77.6927 27.8574C77.6927 26.8936 77.013 26.3164 75.4036 25.9209L73.7942 25.5332C71.514 24.9824 70.4554 23.916 70.4554 22.1855C70.4554 20.043 72.3225 18.5713 74.9739 18.5713C77.5979 18.5713 79.3968 20.043 79.4573 22.1855H77.5813C77.469 20.9463 76.4446 20.1982 74.9475 20.1982C73.4504 20.1982 72.426 20.9551 72.426 22.0566C72.426 22.9346 73.0803 23.4512 74.6809 23.8466L76.0491 24.1826C78.5969 24.7851 79.6555 25.8086 79.6555 27.625C79.6555 29.9482 77.8049 31.4033 74.8616 31.4033C72.1077 31.4033 70.2483 29.9824 70.1282 27.7363L72.0305 27.7364Z" fill="white"/>
<path d="M83.6663 20V22.1426H85.3879V23.6143H83.6663V28.6055C83.6663 29.3809 84.011 29.7422 84.7678 29.7422C84.9722 29.7386 85.1763 29.7243 85.3791 29.6992V31.1621C85.0389 31.2257 84.693 31.2545 84.3469 31.248C82.5139 31.248 81.7991 30.5595 81.7991 28.8037V23.6143H80.4827V22.1426H81.799V20H83.6663Z" fill="white"/>
<path d="M86.3851 26.6699C86.3851 23.8213 88.0628 22.0312 90.679 22.0312C93.304 22.0312 94.9739 23.8212 94.9739 26.6699C94.9739 29.5264 93.3128 31.3086 90.679 31.3086C88.0462 31.3086 86.3851 29.5264 86.3851 26.6699ZM93.0804 26.6699C93.0804 24.7158 92.1849 23.5625 90.679 23.5625C89.1731 23.5625 88.2786 24.7246 88.2786 26.6699C88.2786 28.6318 89.1731 29.7764 90.679 29.7764C92.1849 29.7764 93.0804 28.6318 93.0804 26.6699Z" fill="white"/>
<path d="M96.5061 22.1427H98.2786V23.6837H98.3216C98.4415 23.2024 98.7234 22.7771 99.12 22.4792C99.5166 22.1813 100.004 22.029 100.499 22.048C100.713 22.0472 100.927 22.0705 101.136 22.1173V23.8556C100.866 23.773 100.584 23.735 100.301 23.7433C100.031 23.7323 99.7619 23.7799 99.5121 23.8828C99.2622 23.9857 99.0376 24.1414 98.8536 24.3393C98.6696 24.5372 98.5307 24.7726 98.4462 25.0292C98.3618 25.2859 98.3339 25.5578 98.3645 25.8263V31.1964H96.5061L96.5061 22.1427Z" fill="white"/>
<path d="M109.704 28.5371C109.454 30.1807 107.854 31.3086 105.806 31.3086C103.172 31.3086 101.537 29.5439 101.537 26.7129C101.537 23.873 103.181 22.0312 105.728 22.0312C108.233 22.0312 109.808 23.7519 109.808 26.4971V27.1338H103.413V27.2461C103.384 27.5793 103.426 27.915 103.536 28.2308C103.646 28.5466 103.822 28.8354 104.052 29.078C104.283 29.3205 104.562 29.5113 104.872 29.6376C105.182 29.7639 105.515 29.8228 105.849 29.8105C106.288 29.8517 106.729 29.75 107.105 29.5205C107.482 29.2911 107.775 28.9462 107.94 28.5371L109.704 28.5371ZM103.422 25.835H107.948C107.965 25.5354 107.92 25.2356 107.815 24.9543C107.71 24.6731 107.549 24.4166 107.34 24.2008C107.132 23.9851 106.881 23.8147 106.603 23.7005C106.326 23.5863 106.028 23.5307 105.728 23.5371C105.425 23.5353 105.125 23.5934 104.845 23.7082C104.565 23.8229 104.311 23.992 104.096 24.2056C103.882 24.4193 103.712 24.6732 103.596 24.9529C103.48 25.2325 103.421 25.5323 103.422 25.835Z" fill="white"/>
<path d="M38.1462 9.43109C38.5359 9.40313 38.9268 9.46199 39.2909 9.60342C39.655 9.74485 39.9832 9.96533 40.2518 10.249C40.5204 10.5326 40.7227 10.8723 40.8441 11.2436C40.9655 11.6148 41.003 12.0084 40.9539 12.3959C40.9539 14.3022 39.9236 15.3979 38.1462 15.3979H35.991V9.43109H38.1462ZM36.9177 14.5541H38.0427C38.3211 14.5707 38.5997 14.5251 38.8583 14.4205C39.1168 14.3159 39.3488 14.1549 39.5373 13.9493C39.7258 13.7438 39.866 13.4988 39.9479 13.2321C40.0298 12.9655 40.0511 12.684 40.0105 12.4081C40.0482 12.1333 40.0246 11.8535 39.9415 11.5888C39.8584 11.3242 39.7178 11.0812 39.5297 10.8772C39.3417 10.6733 39.1108 10.5135 38.8537 10.4092C38.5966 10.305 38.3197 10.2589 38.0427 10.2743H36.9177V14.5541Z" fill="white"/>
<path d="M42.0007 13.1445C41.9724 12.8486 42.0063 12.55 42.1001 12.2679C42.1939 11.9859 42.3457 11.7265 42.5456 11.5065C42.7456 11.2866 42.9893 11.1108 43.2611 10.9905C43.533 10.8702 43.827 10.8081 44.1242 10.8081C44.4215 10.8081 44.7155 10.8702 44.9874 10.9905C45.2592 11.1108 45.5029 11.2866 45.7029 11.5065C45.9028 11.7265 46.0546 11.9859 46.1484 12.2679C46.2422 12.55 46.2761 12.8486 46.2478 13.1445C46.2766 13.4407 46.2432 13.7397 46.1496 14.0222C46.056 14.3047 45.9043 14.5646 45.7043 14.785C45.5043 15.0054 45.2604 15.1815 44.9883 15.3021C44.7162 15.4226 44.4219 15.4849 44.1242 15.4849C43.8266 15.4849 43.5323 15.4226 43.2602 15.3021C42.988 15.1815 42.7441 15.0054 42.5442 14.785C42.3442 14.5646 42.1925 14.3047 42.0989 14.0222C42.0053 13.7397 41.9719 13.4407 42.0007 13.1445ZM45.3337 13.1445C45.3337 12.1684 44.8952 11.5976 44.1257 11.5976C43.3532 11.5976 42.9187 12.1684 42.9187 13.1445C42.9187 14.1284 43.3533 14.6948 44.1257 14.6948C44.8952 14.6948 45.3337 14.1245 45.3337 13.1445Z" fill="white"/>
<path d="M51.8933 15.3979H50.9714L50.0408 12.0815H49.9705L49.0437 15.3979H48.1306L46.8894 10.895H47.7908L48.5974 14.331H48.6638L49.5896 10.895H50.4421L51.3679 14.331H51.4382L52.241 10.895H53.1296L51.8933 15.3979Z" fill="white"/>
<path d="M54.1736 10.8951H55.0291V11.6104H55.0955C55.2081 11.3535 55.3981 11.1381 55.639 10.9943C55.8799 10.8505 56.1596 10.7854 56.4392 10.8081C56.6583 10.7917 56.8783 10.8247 57.0829 10.9048C57.2875 10.9849 57.4715 11.11 57.6211 11.2708C57.7708 11.4317 57.8824 11.6242 57.9476 11.834C58.0128 12.0438 58.03 12.2656 57.9978 12.4829V15.3979H57.1091V12.7061C57.1091 11.9825 56.7947 11.6226 56.1375 11.6226C55.9887 11.6157 55.8402 11.641 55.7021 11.6968C55.5641 11.7527 55.4397 11.8377 55.3376 11.9461C55.2355 12.0544 55.158 12.1836 55.1105 12.3248C55.0629 12.4659 55.0465 12.6156 55.0623 12.7637V15.398H54.1736L54.1736 10.8951Z" fill="white"/>
<path d="M59.4138 9.13721H60.3025V15.3979H59.4138V9.13721Z" fill="white"/>
<path d="M61.5379 13.1446C61.5096 12.8486 61.5434 12.55 61.6373 12.268C61.7312 11.9859 61.8829 11.7265 62.0829 11.5065C62.2829 11.2866 62.5266 11.1108 62.7985 10.9905C63.0703 10.8702 63.3643 10.8081 63.6616 10.8081C63.9589 10.8081 64.2529 10.8702 64.5248 10.9905C64.7967 11.1108 65.0404 11.2866 65.2404 11.5065C65.4403 11.7265 65.5921 11.9859 65.686 12.268C65.7798 12.55 65.8137 12.8486 65.7854 13.1446C65.8142 13.4408 65.7807 13.7398 65.6871 14.0223C65.5935 14.3048 65.4418 14.5646 65.2418 14.7851C65.0418 15.0055 64.7979 15.1816 64.5257 15.3021C64.2536 15.4226 63.9593 15.4849 63.6616 15.4849C63.364 15.4849 63.0697 15.4226 62.7975 15.3021C62.5254 15.1816 62.2815 15.0055 62.0815 14.7851C61.8815 14.5646 61.7298 14.3048 61.6361 14.0223C61.5425 13.7398 61.509 13.4408 61.5379 13.1446ZM64.8709 13.1446C64.8709 12.1685 64.4324 11.5977 63.6629 11.5977C62.8904 11.5977 62.4559 12.1685 62.4559 13.1446C62.4559 14.1285 62.8904 14.6949 63.6629 14.6949C64.4324 14.6949 64.8709 14.1245 64.8709 13.1446Z" fill="white"/>
<path d="M66.7209 14.1245C66.7209 13.314 67.3245 12.8467 68.3957 12.7803L69.6155 12.71V12.3213C69.6155 11.8457 69.301 11.5771 68.6936 11.5771C68.1975 11.5771 67.8538 11.7593 67.7551 12.0776H66.8948C66.9856 11.3042 67.7131 10.8081 68.7346 10.8081C69.8635 10.8081 70.5002 11.3701 70.5002 12.3213V15.3979H69.6448V14.7651H69.5745C69.4317 14.9921 69.2313 15.1772 68.9937 15.3014C68.7561 15.4256 68.4898 15.4845 68.2219 15.4721C68.0329 15.4918 67.8418 15.4716 67.6611 15.4129C67.4803 15.3542 67.3139 15.2583 67.1724 15.1313C67.031 15.0044 66.9178 14.8492 66.84 14.6758C66.7623 14.5023 66.7217 14.3146 66.7209 14.1245ZM69.6155 13.7397V13.3633L68.5159 13.4336C67.8957 13.4751 67.6145 13.686 67.6145 14.083C67.6145 14.4883 67.9661 14.7241 68.4495 14.7241C68.5911 14.7384 68.7342 14.7241 68.8702 14.6821C69.0062 14.64 69.1324 14.5709 69.2412 14.4791C69.35 14.3873 69.4392 14.2745 69.5035 14.1475C69.5678 14.0204 69.6059 13.8818 69.6155 13.7397Z" fill="white"/>
<path d="M71.6682 13.1445C71.6682 11.7217 72.3997 10.8203 73.5374 10.8203C73.8188 10.8074 74.0981 10.8748 74.3426 11.0147C74.5871 11.1546 74.7868 11.3612 74.9182 11.6103H74.9846V9.13721H75.8733V15.3979H75.0217V14.6865H74.9514C74.8098 14.934 74.6032 15.138 74.354 15.2765C74.1047 15.415 73.8223 15.4827 73.5374 15.4722C72.3919 15.4722 71.6682 14.5708 71.6682 13.1445ZM72.5862 13.1445C72.5862 14.0996 73.0364 14.6743 73.7893 14.6743C74.5383 14.6743 75.0013 14.0913 75.0013 13.1485C75.0013 12.21 74.5335 11.6187 73.7893 11.6187C73.0413 11.6187 72.5862 12.1973 72.5862 13.1445Z" fill="white"/>
<path d="M79.55 13.1445C79.5217 12.8486 79.5556 12.55 79.6494 12.2679C79.7432 11.9859 79.895 11.7265 80.0949 11.5065C80.2949 11.2866 80.5386 11.1108 80.8104 10.9905C81.0823 10.8702 81.3763 10.8081 81.6736 10.8081C81.9708 10.8081 82.2648 10.8702 82.5367 10.9905C82.8085 11.1108 83.0522 11.2866 83.2522 11.5065C83.4521 11.7265 83.6039 11.9859 83.6977 12.2679C83.7915 12.55 83.8254 12.8486 83.7971 13.1445C83.8259 13.4407 83.7925 13.7397 83.6989 14.0222C83.6053 14.3047 83.4536 14.5646 83.2536 14.785C83.0537 15.0054 82.8098 15.1815 82.5376 15.3021C82.2655 15.4226 81.9712 15.4849 81.6736 15.4849C81.3759 15.4849 81.0816 15.4226 80.8095 15.3021C80.5374 15.1815 80.2935 15.0054 80.0935 14.785C79.8935 14.5646 79.7418 14.3047 79.6482 14.0222C79.5546 13.7397 79.5212 13.4407 79.55 13.1445ZM82.883 13.1445C82.883 12.1684 82.4445 11.5976 81.675 11.5976C80.9026 11.5976 80.468 12.1684 80.468 13.1445C80.468 14.1284 80.9026 14.6948 81.675 14.6948C82.4446 14.6948 82.883 14.1245 82.883 13.1445Z" fill="white"/>
<path d="M84.9895 10.8951H85.845V11.6104H85.9114C86.024 11.3535 86.214 11.1381 86.4549 10.9943C86.6958 10.8505 86.9755 10.7854 87.2551 10.8081C87.4742 10.7917 87.6942 10.8247 87.8988 10.9048C88.1034 10.9849 88.2874 11.11 88.4371 11.2708C88.5867 11.4317 88.6983 11.6242 88.7635 11.834C88.8287 12.0438 88.8459 12.2656 88.8137 12.4829V15.3979H87.9251V12.7061C87.9251 11.9825 87.6106 11.6226 86.9534 11.6226C86.8046 11.6157 86.6561 11.641 86.5181 11.6968C86.38 11.7527 86.2557 11.8377 86.1535 11.9461C86.0514 12.0544 85.9739 12.1836 85.9264 12.3248C85.8789 12.4659 85.8624 12.6156 85.8782 12.7637V15.398H84.9895V10.8951Z" fill="white"/>
<path d="M93.8352 9.77393V10.9155H94.8108V11.6641H93.8352V13.9795C93.8352 14.4512 94.0295 14.6577 94.4719 14.6577C94.5852 14.6574 94.6983 14.6505 94.8108 14.6372V15.3774C94.6512 15.406 94.4895 15.4212 94.3274 15.4228C93.3391 15.4228 92.9456 15.0752 92.9456 14.207V11.664H92.2307V10.9155H92.9456V9.77393H93.8352Z" fill="white"/>
<path d="M96.0247 9.13721H96.9055V11.6187H96.9758C97.094 11.3593 97.2892 11.1427 97.5349 10.9984C97.7806 10.8541 98.0648 10.789 98.3488 10.812C98.5668 10.8002 98.7847 10.8365 98.987 10.9186C99.1892 11.0006 99.3709 11.1263 99.519 11.2866C99.6672 11.447 99.7781 11.638 99.8438 11.8462C99.9096 12.0543 99.9287 12.2744 99.8996 12.4907V15.398H99.01V12.71C99.01 11.9907 98.675 11.6265 98.0472 11.6265C97.8944 11.6139 97.7408 11.6349 97.597 11.688C97.4532 11.741 97.3228 11.8249 97.2148 11.9336C97.1068 12.0423 97.0239 12.1734 96.9718 12.3175C96.9197 12.4616 96.8998 12.6154 96.9134 12.7681V15.3979H96.0247L96.0247 9.13721Z" fill="white"/>
<path d="M105.081 14.1822C104.961 14.5937 104.699 14.9497 104.342 15.1879C103.986 15.426 103.556 15.5312 103.13 15.4849C102.833 15.4928 102.539 15.4359 102.266 15.3184C101.994 15.2009 101.75 15.0255 101.552 14.8043C101.354 14.5832 101.207 14.3216 101.12 14.0378C101.033 13.754 101.009 13.4547 101.05 13.1607C101.011 12.8658 101.035 12.5659 101.121 12.2812C101.208 11.9966 101.354 11.7338 101.551 11.5107C101.748 11.2876 101.991 11.1095 102.262 10.9883C102.534 10.8671 102.829 10.8056 103.126 10.8082C104.379 10.8082 105.135 11.6642 105.135 13.0782V13.3883H101.955V13.4381C101.941 13.6033 101.962 13.7696 102.016 13.9264C102.07 14.0831 102.157 14.2269 102.27 14.3483C102.382 14.4698 102.52 14.5663 102.672 14.6317C102.824 14.6971 102.989 14.7299 103.155 14.7281C103.367 14.7536 103.582 14.7153 103.773 14.6181C103.964 14.5209 104.122 14.3692 104.226 14.1822L105.081 14.1822ZM101.955 12.731H104.23C104.241 12.5799 104.22 12.4281 104.169 12.2854C104.118 12.1427 104.038 12.0122 103.934 11.9023C103.829 11.7925 103.703 11.7057 103.563 11.6475C103.423 11.5893 103.273 11.5611 103.121 11.5645C102.968 11.5626 102.815 11.5915 102.673 11.6494C102.53 11.7073 102.401 11.7932 102.292 11.9019C102.184 12.0106 102.098 12.14 102.04 12.2824C101.982 12.4248 101.953 12.5773 101.955 12.731Z" fill="white"/>
</g>
<defs>
<clipPath id="clip0_10_385">
<rect width="119.664" height="40" fill="white" transform="translate(0.320068 0.700195)"/>
</clipPath>
</defs>
</svg>
