<svg width="25" height="26" viewBox="0 0 25 26" fill="none" xmlns="http://www.w3.org/2000/svg">
<g opacity="0.8" clip-path="url(#clip0_1_290)">
<path d="M10.739 1.944C8.97598 1.94373 7.25248 2.46629 5.78643 3.44563C4.32038 4.42496 3.17769 5.81706 2.50287 7.44586C1.82804 9.07467 1.65134 10.867 1.99523 12.5962C2.33912 14.3254 3.1882 15.9138 4.43487 17.1605C5.68155 18.4072 7.26985 19.2561 8.99905 19.6C10.7282 19.9439 12.5206 19.7673 14.1494 19.0925C15.7782 18.4176 17.1704 17.275 18.1497 15.8089C19.1291 14.3429 19.6516 12.6193 19.6513 10.8562C19.6488 8.49333 18.7089 6.22797 17.0381 4.55716C15.3673 2.88635 13.1019 1.94657 10.739 1.944ZM10.739 20.9475C8.71711 20.9475 6.74069 20.3479 5.05951 19.2246C3.37834 18.1013 2.06798 16.5046 1.29422 14.6366C0.52046 12.7686 0.317957 10.7131 0.712415 8.73003C1.10687 6.74695 2.08063 4.92538 3.51035 3.49566C4.94007 2.06594 6.76164 1.09231 8.74472 0.69785C10.7278 0.303391 12.7833 0.50581 14.6513 1.27957C16.5193 2.05333 18.1159 3.36365 19.2392 5.04482C20.3625 6.72599 20.9621 8.7025 20.9621 10.7244C20.9588 13.4347 19.8806 16.0331 17.9642 17.9496C16.0477 19.8661 13.4493 20.9442 10.739 20.9475Z" fill="white"/>
<path d="M17.6685 17.3497L16.7146 18.2468L23.5384 25.5032L24.4923 24.6061L17.6685 17.3497Z" fill="white"/>
</g>
<defs>
<clipPath id="clip0_1_290">
<rect width="25" height="25" fill="white" transform="translate(0 0.5)"/>
</clipPath>
</defs>
</svg>
