<svg width="25" height="26" viewBox="0 0 25 26" fill="none" xmlns="http://www.w3.org/2000/svg">
<g opacity="0.8" clip-path="url(#clip0_1_284)">
<path d="M7.31849 22.0672L4.9558 24.4345C4.86546 24.5491 4.74745 24.6387 4.61283 24.6949C4.47821 24.7511 4.3315 24.7721 4.18654 24.7558C4.06556 24.668 3.96826 24.5515 3.90345 24.4168C3.83865 24.2821 3.80833 24.1334 3.81522 23.9841C3.82803 23.3614 3.81522 22.7399 3.81522 22.0893L3.46608 22.0672C3.0112 22.068 2.55683 22.0357 2.10664 21.9706C1.51 21.8377 0.976869 21.5047 0.595747 21.0268C0.214626 20.5489 0.00849094 19.955 0.0116797 19.3438C0.0116797 17.1999 0.0407652 15.0549 2.95988e-05 12.911C-0.0033757 12.1708 0.287173 11.4595 0.807865 10.9333C1.32856 10.4072 2.03686 10.1092 2.77709 10.1049C3.00986 10.1049 3.22978 10.1049 3.49165 10.1049V9.76973C3.49165 8.1085 3.49165 6.44764 3.49165 4.78718C3.48331 4.31875 3.56936 3.85345 3.74461 3.41895C3.91986 2.98446 4.18073 2.58967 4.51174 2.25812C4.84275 1.92656 5.23715 1.66503 5.67135 1.48907C6.10556 1.3131 6.57073 1.22631 7.03918 1.23388C11.8638 1.23388 16.6884 1.23388 21.5131 1.23388C22.4104 1.23213 23.2732 1.57924 23.9193 2.20189C24.5654 2.82454 24.9442 3.67397 24.9756 4.57071C25.0164 6.37006 24.9907 8.17174 24.9896 9.97341C24.9896 11.2816 25 12.5921 24.971 13.9003C24.9074 14.694 24.5733 15.4418 24.0247 16.0189C23.476 16.5959 22.746 16.9672 21.9566 17.0707C21.3746 17.1173 20.781 17.1045 20.1933 17.1184C20.0769 17.1184 19.9605 17.1184 19.8115 17.1184V17.4478C19.8115 18.3184 19.8115 19.1886 19.8115 20.0584C19.8115 20.2911 19.8639 20.5728 19.5787 20.6741C19.4406 20.7208 19.2917 20.7262 19.1505 20.6896C19.0093 20.653 18.8819 20.576 18.7838 20.4681C17.9621 19.6627 17.1544 18.8386 16.3396 18.0239C16.2791 17.9657 16.2152 17.9075 16.1069 17.8109C16.1069 18.3347 16.1069 18.8037 16.1069 19.2739C16.113 19.912 15.8975 20.5324 15.4971 21.0292C15.0968 21.5261 14.5365 21.8687 13.9118 21.9986C13.6787 22.0436 13.4416 22.0638 13.2042 22.0591C11.3591 22.0645 9.51355 22.0645 7.66764 22.0591L7.31849 22.0672ZM18.785 18.7618C18.785 17.9983 18.785 17.3163 18.785 16.6319C18.785 16.1664 18.9898 15.9592 19.46 15.9545C20.0571 15.9545 20.6553 15.9545 21.2524 15.9545C21.5152 15.9668 21.7786 15.9548 22.0392 15.9185C22.5845 15.8202 23.0769 15.5307 23.4279 15.1019C23.7788 14.673 23.9652 14.1331 23.9537 13.5791C23.9537 10.6531 23.9363 7.72597 23.9642 4.80116C23.9674 4.47851 23.9058 4.15849 23.7831 3.86006C23.6604 3.56163 23.4791 3.29084 23.2499 3.06371C23.0207 2.83659 22.7483 2.65774 22.4488 2.53775C22.1492 2.41777 21.8287 2.35908 21.5061 2.36517C16.6954 2.36905 11.8886 2.37137 7.0857 2.37215C6.85803 2.37231 6.63125 2.40085 6.41064 2.45711C5.88637 2.5901 5.42355 2.89878 5.09929 3.33168C4.77504 3.76459 4.60901 4.29556 4.62881 4.83607C4.62881 7.27866 4.63573 9.72279 4.6497 12.1685C4.6497 12.6783 4.64975 13.188 4.65673 13.6978C4.68241 14.3119 4.94626 14.8918 5.39232 15.3146C5.83839 15.7374 6.43157 15.9699 7.04614 15.9627C9.83129 15.9394 12.6176 15.9557 15.4027 15.9545C15.5859 15.9472 15.7684 15.9792 15.9381 16.0485C16.1077 16.1178 16.2606 16.2227 16.3862 16.3561C17.1556 17.1452 17.9446 17.9203 18.785 18.763V18.7618ZM15.0815 17.1254H14.7068C12.2549 17.1254 9.80335 17.1254 7.35224 17.1254C7.06329 17.1244 6.77464 17.1076 6.4875 17.0754C5.67923 16.9573 4.93753 16.5607 4.39055 15.954C3.84358 15.3473 3.52565 14.5686 3.49165 13.7525C3.49165 13.0228 3.49165 12.2942 3.49165 11.5644C3.49165 11.4713 3.48352 11.3794 3.47886 11.2723C3.22048 11.2723 2.99239 11.2723 2.76544 11.2723C2.5498 11.271 2.3361 11.313 2.13697 11.3957C1.93785 11.4785 1.75736 11.6004 1.60618 11.7542C1.45501 11.908 1.33618 12.0905 1.25682 12.291C1.17746 12.4915 1.13917 12.7059 1.14415 12.9215C1.14415 15.0312 1.14415 17.1402 1.14415 19.2483C1.11848 19.6266 1.23582 20.0008 1.47291 20.2968C1.71001 20.5927 2.04956 20.7888 2.42439 20.8463C2.97141 20.9232 3.52514 20.9407 4.07593 20.8987C4.20019 20.8823 4.32654 20.8948 4.44518 20.9352C4.56382 20.9757 4.67155 21.0429 4.75995 21.1318C4.84835 21.2206 4.91505 21.3287 4.95487 21.4475C4.9947 21.5664 5.00662 21.6928 4.98961 21.817C4.96168 22.1603 4.98961 22.506 4.98961 22.854L6.84013 21.0372C6.95652 21.0302 7.06476 21.0186 7.17649 21.0186H10.2351C11.3431 21.0186 12.4465 21.0267 13.5568 21.0093C13.9251 21.0027 14.2788 20.8639 14.5532 20.6182C14.8276 20.3724 15.0044 20.0362 15.0512 19.6708C15.1094 19.0353 15.0815 18.3905 15.0908 17.7504C15.0838 17.5502 15.0815 17.3489 15.0815 17.1254Z" fill="white"/>
</g>
<defs>
<clipPath id="clip0_1_284">
<rect width="25" height="25" fill="white" transform="translate(0 0.5)"/>
</clipPath>
</defs>
</svg>
