<svg width="463" height="95" viewBox="0 0 463 95" fill="none" xmlns="http://www.w3.org/2000/svg">
<g clip-path="url(#clip0_1_213)">
<path d="M144.116 18.8584C144.116 18.1553 143.865 17.5518 143.361 17.0479C142.857 16.5439 142.253 16.292 141.55 16.292C140.835 16.292 140.229 16.5439 139.731 17.0479C139.233 17.5518 138.984 18.1553 138.984 18.8584C138.984 19.5732 139.233 20.1797 139.731 20.6777C140.229 21.1758 140.835 21.4248 141.55 21.4248C142.253 21.4248 142.857 21.1758 143.361 20.6777C143.865 20.1797 144.116 19.5732 144.116 18.8584ZM145.505 18.8584C145.505 19.4092 145.4 19.9248 145.189 20.4053C144.99 20.8857 144.711 21.3047 144.354 21.6621C143.996 22.0195 143.577 22.3037 143.097 22.5146C142.616 22.7139 142.101 22.8135 141.55 22.8135C140.999 22.8135 140.484 22.7139 140.003 22.5146C139.523 22.3037 139.104 22.0195 138.746 21.6621C138.389 21.3047 138.105 20.8857 137.894 20.4053C137.695 19.9248 137.595 19.4092 137.595 18.8584C137.595 18.3076 137.695 17.792 137.894 17.3115C138.105 16.8311 138.389 16.4121 138.746 16.0547C139.104 15.6973 139.523 15.4189 140.003 15.2197C140.484 15.0088 140.999 14.9033 141.55 14.9033C142.101 14.9033 142.616 15.0088 143.097 15.2197C143.577 15.4189 143.996 15.6973 144.354 16.0547C144.711 16.4121 144.99 16.8311 145.189 17.3115C145.4 17.792 145.505 18.3076 145.505 18.8584ZM146.595 14.7451C146.595 15.0029 146.504 15.2197 146.323 15.3955C146.141 15.5713 145.921 15.6592 145.663 15.6592C145.406 15.6592 145.189 15.5713 145.013 15.3955C144.837 15.2197 144.749 15.0029 144.749 14.7451C144.749 14.4873 144.837 14.2676 145.013 14.0859C145.189 13.9043 145.406 13.8135 145.663 13.8135C145.921 13.8135 146.141 13.9043 146.323 14.0859C146.504 14.2676 146.595 14.4873 146.595 14.7451ZM141.55 12.5303C141.269 12.5303 140.923 12.5303 140.513 12.5303C140.091 12.5186 139.663 12.5215 139.23 12.5391C138.796 12.5566 138.38 12.583 137.982 12.6182C137.583 12.665 137.255 12.7412 136.997 12.8467C136.822 12.917 136.663 12.9961 136.523 13.084C136.382 13.1719 136.247 13.2861 136.118 13.4268C135.978 13.5674 135.864 13.7051 135.776 13.8398C135.688 13.9746 135.609 14.1299 135.538 14.3057C135.433 14.5635 135.357 14.8916 135.31 15.29C135.263 15.6885 135.234 16.1045 135.222 16.5381C135.21 16.9717 135.204 17.3994 135.204 17.8213C135.216 18.2314 135.222 18.5771 135.222 18.8584C135.222 19.1396 135.216 19.4854 135.204 19.8955C135.204 20.3174 135.21 20.7451 135.222 21.1787C135.234 21.6123 135.263 22.0283 135.31 22.4268C135.357 22.8252 135.433 23.1533 135.538 23.4111C135.609 23.5869 135.688 23.7451 135.776 23.8857C135.864 24.0264 135.978 24.1611 136.118 24.29C136.247 24.4307 136.382 24.5449 136.523 24.6328C136.663 24.7207 136.822 24.7998 136.997 24.8701C137.255 24.9756 137.583 25.0518 137.982 25.0986C138.38 25.1455 138.796 25.1748 139.23 25.1865C139.663 25.1982 140.091 25.2041 140.513 25.2041C140.923 25.1924 141.269 25.1865 141.55 25.1865C141.831 25.1865 142.177 25.1924 142.587 25.2041C143.009 25.2041 143.437 25.1982 143.87 25.1865C144.304 25.1748 144.72 25.1455 145.118 25.0986C145.517 25.0518 145.845 24.9756 146.103 24.8701C146.279 24.7998 146.434 24.7207 146.569 24.6328C146.703 24.5449 146.841 24.4307 146.982 24.29C147.122 24.1611 147.237 24.0264 147.324 23.8857C147.412 23.7451 147.491 23.5869 147.562 23.4111C147.667 23.1533 147.743 22.8252 147.79 22.4268C147.825 22.0283 147.852 21.6123 147.869 21.1787C147.887 20.7451 147.89 20.3174 147.878 19.8955C147.878 19.4854 147.878 19.1396 147.878 18.8584C147.878 18.5771 147.878 18.2314 147.878 17.8213C147.89 17.3994 147.887 16.9717 147.869 16.5381C147.852 16.1045 147.825 15.6885 147.79 15.29C147.743 14.8916 147.667 14.5635 147.562 14.3057C147.491 14.1299 147.412 13.9746 147.324 13.8398C147.237 13.7051 147.122 13.5674 146.982 13.4268C146.841 13.2861 146.703 13.1719 146.569 13.084C146.434 12.9961 146.279 12.917 146.103 12.8467C145.845 12.7412 145.517 12.665 145.118 12.6182C144.72 12.583 144.304 12.5566 143.87 12.5391C143.437 12.5215 143.009 12.5186 142.587 12.5303C142.177 12.5303 141.831 12.5303 141.55 12.5303ZM149.267 18.8584C149.267 19.3975 149.264 19.9307 149.258 20.458C149.252 20.9854 149.238 21.5127 149.214 22.04C149.179 22.6611 149.076 23.2441 148.907 23.7891C148.737 24.334 148.423 24.8291 147.966 25.2744C147.509 25.7314 147.011 26.0479 146.472 26.2236C145.933 26.3994 145.353 26.499 144.732 26.5225C144.204 26.5576 143.674 26.5752 143.141 26.5752C142.608 26.5752 142.077 26.5752 141.55 26.5752C141.011 26.5752 140.478 26.5752 139.95 26.5752C139.423 26.5752 138.896 26.5576 138.368 26.5225C137.747 26.499 137.164 26.3994 136.619 26.2236C136.074 26.0479 135.579 25.7314 135.134 25.2744C134.677 24.8291 134.361 24.334 134.185 23.7891C134.009 23.2441 133.909 22.6611 133.886 22.04C133.851 21.5127 133.833 20.9854 133.833 20.458C133.833 19.9307 133.833 19.3975 133.833 18.8584C133.833 18.3311 133.833 17.8008 133.833 17.2676C133.833 16.7344 133.851 16.2041 133.886 15.6768C133.909 15.0557 134.009 14.4756 134.185 13.9365C134.361 13.3975 134.677 12.8994 135.134 12.4424C135.579 11.9854 136.074 11.6719 136.619 11.502C137.164 11.332 137.747 11.2295 138.368 11.1943C138.896 11.1709 139.423 11.1562 139.95 11.1504C140.478 11.1445 141.011 11.1416 141.55 11.1416C142.077 11.1416 142.608 11.1445 143.141 11.1504C143.674 11.1562 144.204 11.1709 144.732 11.1943C145.353 11.2295 145.933 11.332 146.472 11.502C147.011 11.6719 147.509 11.9854 147.966 12.4424C148.423 12.8994 148.737 13.3975 148.907 13.9365C149.076 14.4756 149.179 15.0557 149.214 15.6768C149.238 16.2041 149.252 16.7344 149.258 17.2676C149.264 17.8008 149.267 18.3311 149.267 18.8584Z" fill="white"/>
</g>
<g clip-path="url(#clip1_1_213)">
<path d="M177.958 9.98145V12.6357H176.376C175.766 12.6357 175.371 12.7705 175.189 13.04C175.007 13.3096 174.917 13.6553 174.917 14.0771V15.9756H177.852L177.465 18.9463H174.917V26.5752H171.84V18.9463H169.274V15.9756H171.84V13.7959C171.84 13.1514 171.934 12.5889 172.122 12.1084C172.309 11.6162 172.57 11.2031 172.904 10.8691C173.238 10.5352 173.639 10.2861 174.108 10.1221C174.577 9.94629 175.098 9.8584 175.673 9.8584C176.212 9.8584 176.692 9.87305 177.114 9.90234C177.536 9.93164 177.817 9.95801 177.958 9.98145Z" fill="white"/>
</g>
<g clip-path="url(#clip2_1_213)">
<path d="M206.997 21.1963L211.866 18.6826L206.997 16.1338V21.1963ZM208.86 12.5303C209.809 12.5303 210.671 12.542 211.444 12.5654C212.218 12.5771 212.88 12.5947 213.43 12.6182C213.981 12.6416 214.409 12.665 214.714 12.6885C215.007 12.7002 215.153 12.7061 215.153 12.7061C215.329 12.7295 215.59 12.7734 215.935 12.8379C216.281 12.9023 216.624 13.1162 216.964 13.4795C216.964 13.4795 217.063 13.6201 217.262 13.9014C217.462 14.1826 217.602 14.6396 217.684 15.2725C217.778 15.999 217.831 16.6641 217.843 17.2676C217.854 17.8711 217.86 18.1729 217.86 18.1729V19.5439C217.86 19.5439 217.854 19.8486 217.843 20.458C217.831 21.0674 217.778 21.7354 217.684 22.4619C217.602 23.0713 217.462 23.5195 217.262 23.8066C217.063 24.0938 216.964 24.2373 216.964 24.2373C216.624 24.6006 216.281 24.8145 215.935 24.8789C215.59 24.9434 215.329 24.9814 215.153 24.9932C215.153 24.9932 215.007 25.0049 214.714 25.0283C214.409 25.0518 213.981 25.0752 213.43 25.0986C212.88 25.1221 212.218 25.1396 211.444 25.1514C210.671 25.1748 209.809 25.1865 208.86 25.1865C206.516 25.1631 204.911 25.1279 204.044 25.0811C203.177 25.0342 202.743 25.0107 202.743 25.0107C202.544 24.9756 202.248 24.9287 201.855 24.8701C201.463 24.8115 201.096 24.6006 200.757 24.2373C200.757 24.2373 200.657 24.0938 200.458 23.8066C200.259 23.5195 200.118 23.0713 200.036 22.4619C199.942 21.7354 199.889 21.0674 199.878 20.458C199.866 19.8486 199.86 19.5439 199.86 19.5439V18.1729C199.86 18.1729 199.866 17.8711 199.878 17.2676C199.889 16.6641 199.942 15.999 200.036 15.2725C200.118 14.6396 200.259 14.1826 200.458 13.9014C200.657 13.6201 200.757 13.4795 200.757 13.4795C201.096 13.1162 201.439 12.9023 201.785 12.8379C202.131 12.7734 202.391 12.7295 202.567 12.7061C202.567 12.7061 202.714 12.7002 203.007 12.6885C203.311 12.665 203.739 12.6416 204.29 12.6182C204.841 12.5947 205.503 12.5771 206.276 12.5654C207.05 12.542 207.911 12.5303 208.86 12.5303Z" fill="white"/>
</g>
<g clip-path="url(#clip3_1_213)">
<path d="M253.7 13.9541C253.477 14.2822 253.228 14.5869 252.953 14.8682C252.677 15.1494 252.381 15.4072 252.065 15.6416C252.077 15.7119 252.082 15.7822 252.082 15.8525C252.082 15.9229 252.082 15.9932 252.082 16.0635C252.082 17.1299 251.877 18.2139 251.467 19.3154C251.069 20.4053 250.48 21.3926 249.701 22.2773C248.921 23.1621 247.957 23.8857 246.809 24.4482C245.661 25.0107 244.342 25.292 242.854 25.292C241.928 25.292 241.043 25.1631 240.2 24.9053C239.356 24.6475 238.577 24.29 237.862 23.833C237.991 23.8447 238.12 23.8535 238.248 23.8594C238.377 23.8652 238.512 23.8682 238.653 23.8682C239.403 23.8682 240.12 23.748 240.806 23.5078C241.492 23.2676 242.116 22.9248 242.678 22.4795C241.963 22.4678 241.33 22.251 240.78 21.8291C240.229 21.4072 239.848 20.874 239.637 20.2295C239.743 20.2529 239.845 20.2676 239.945 20.2734C240.044 20.2793 240.147 20.2822 240.252 20.2822C240.405 20.2822 240.551 20.2734 240.692 20.2559C240.832 20.2383 240.973 20.2119 241.114 20.1768C240.364 20.0244 239.743 19.6523 239.25 19.0605C238.758 18.4688 238.512 17.7803 238.512 16.9951V16.96C238.723 17.0771 238.952 17.1709 239.198 17.2412C239.444 17.3115 239.702 17.3525 239.971 17.3643C239.537 17.0713 239.189 16.6875 238.925 16.2129C238.661 15.7383 238.53 15.2197 238.53 14.6572C238.53 14.3643 238.568 14.0801 238.644 13.8047C238.72 13.5293 238.828 13.2686 238.969 13.0225C239.368 13.5146 239.813 13.96 240.305 14.3584C240.797 14.7686 241.328 15.1201 241.896 15.4131C242.464 15.7061 243.065 15.9346 243.698 16.0986C244.33 16.2744 244.987 16.3799 245.666 16.415C245.631 16.2979 245.608 16.1777 245.596 16.0547C245.584 15.9316 245.578 15.8057 245.578 15.6768C245.578 14.7861 245.895 14.0215 246.528 13.3828C247.161 12.7441 247.928 12.4248 248.83 12.4248C249.287 12.4248 249.721 12.5186 250.131 12.7061C250.541 12.8936 250.893 13.1455 251.186 13.4619C251.561 13.3916 251.921 13.2891 252.267 13.1543C252.613 13.0195 252.944 12.8584 253.26 12.6709C253.131 13.0459 252.944 13.3887 252.698 13.6992C252.452 14.0098 252.159 14.2646 251.819 14.4639C252.147 14.4287 252.469 14.3672 252.786 14.2793C253.102 14.1914 253.407 14.083 253.7 13.9541Z" fill="white"/>
</g>
<g clip-path="url(#clip4_1_213)">
<path d="M285.798 9.54123C285.868 10.1858 286.015 10.76 286.238 11.2639C286.448 11.7678 286.73 12.1985 287.081 12.5559C287.433 12.9133 287.855 13.1975 288.347 13.4084C288.827 13.6194 289.378 13.7424 289.999 13.7776V16.6604C289.284 16.7307 288.596 16.6545 287.934 16.4319C287.272 16.2092 286.577 15.8811 285.851 15.4475V20.8088C285.851 22.5197 285.447 23.9201 284.638 25.01C283.829 26.1115 282.865 26.8557 281.746 27.2424C280.627 27.6291 279.482 27.6408 278.31 27.2776C277.126 26.9026 276.159 26.1057 275.409 24.8869C274.929 24.0901 274.654 23.1936 274.583 22.1975C274.501 21.1897 274.668 20.2346 275.084 19.3322C275.5 18.4299 276.177 17.6623 277.115 17.0295C278.052 16.385 279.288 16.0393 280.823 15.9924V19.0158C280.589 19.051 280.352 19.0979 280.112 19.1565C279.871 19.2151 279.634 19.2854 279.4 19.3674C278.72 19.6018 278.201 19.9475 277.844 20.4045C277.487 20.8615 277.361 21.4709 277.466 22.2326C277.572 22.9709 277.929 23.551 278.538 23.9729C279.159 24.4065 279.804 24.591 280.472 24.5266C281.14 24.4621 281.726 24.1018 282.23 23.4455C282.734 22.7893 282.933 21.7404 282.827 20.299V9.54123H285.798Z" fill="white"/>
</g>
<g clip-path="url(#clip5_1_213)">
<path d="M313.521 16.1338V26.1006H310.217V16.1338H313.521ZM313.732 13.0576C313.744 13.5381 313.58 13.9453 313.24 14.2793C312.9 14.6133 312.443 14.7803 311.869 14.7803H311.851C311.289 14.7803 310.844 14.6133 310.515 14.2793C310.187 13.9453 310.023 13.5381 310.023 13.0576C310.023 12.5771 310.193 12.1729 310.533 11.8447C310.873 11.5166 311.324 11.3525 311.887 11.3525C312.461 11.3525 312.912 11.5166 313.24 11.8447C313.568 12.1729 313.732 12.5771 313.732 13.0576ZM325.457 20.3877V26.1006H322.152V20.7744C322.152 20.1064 322.02 19.5645 321.757 19.1484C321.493 18.7324 321.062 18.5244 320.465 18.5244C320.008 18.5244 319.641 18.6504 319.366 18.9023C319.091 19.1543 318.894 19.4268 318.777 19.7197C318.73 19.8369 318.698 19.9658 318.68 20.1064C318.663 20.2471 318.654 20.3936 318.654 20.5459V26.1006H315.349C315.361 23.8389 315.367 22.0518 315.367 20.7393C315.367 19.415 315.367 18.4131 315.367 17.7334C315.367 17.0537 315.367 16.6201 315.367 16.4326C315.355 16.2334 315.349 16.1338 315.349 16.1338H318.654V17.5928H318.637C318.859 17.2412 319.193 16.8721 319.638 16.4854C320.084 16.0986 320.752 15.9053 321.642 15.9053C322.193 15.9053 322.697 15.999 323.154 16.1865C323.623 16.3623 324.027 16.6348 324.367 17.0039C324.707 17.373 324.971 17.8389 325.158 18.4014C325.357 18.9639 325.457 19.626 325.457 20.3877Z" fill="white"/>
</g>
<g clip-path="url(#clip6_1_213)">
<path d="M352.248 22.7607C352.389 22.5264 352.424 22.292 352.354 22.0576C352.284 21.8232 352.131 21.6592 351.897 21.5654C351.674 21.4717 351.431 21.4688 351.167 21.5566C350.904 21.6445 350.702 21.7998 350.561 22.0225C350.42 22.2451 350.379 22.4736 350.438 22.708C350.496 22.9424 350.637 23.1123 350.86 23.2178C351.094 23.3232 351.346 23.332 351.616 23.2441C351.885 23.1562 352.096 22.9951 352.248 22.7607ZM353.18 21.5479C353.239 21.4541 353.253 21.3633 353.224 21.2754C353.195 21.1875 353.133 21.126 353.039 21.0908C352.957 21.0557 352.867 21.0586 352.767 21.0996C352.667 21.1406 352.594 21.2021 352.547 21.2842C352.5 21.3779 352.489 21.4658 352.512 21.5479C352.536 21.6299 352.588 21.6943 352.67 21.7412C352.764 21.7764 352.861 21.7734 352.96 21.7324C353.06 21.6914 353.133 21.6299 353.18 21.5479ZM354.938 22.6201C354.633 23.2998 354.103 23.8008 353.347 24.123C352.591 24.4453 351.844 24.4834 351.106 24.2373C350.379 24.0146 349.881 23.5928 349.612 22.9717C349.342 22.3506 349.366 21.7236 349.682 21.0908C349.998 20.4697 350.505 20.0039 351.203 19.6934C351.9 19.3828 352.606 19.3213 353.321 19.5088C354.059 19.6963 354.589 20.0918 354.911 20.6953C355.234 21.2988 355.243 21.9404 354.938 22.6201ZM358.067 21.0029C358.02 20.5225 357.832 20.0771 357.504 19.667C357.188 19.2686 356.769 18.9316 356.247 18.6562C355.726 18.3809 355.125 18.1846 354.446 18.0674C353.778 17.9502 353.069 17.9268 352.319 17.9971C351.58 18.0674 350.889 18.2314 350.245 18.4893C349.612 18.7354 349.067 19.043 348.61 19.4121C348.153 19.7812 347.807 20.1943 347.573 20.6514C347.327 21.1084 347.227 21.583 347.274 22.0752C347.332 22.5674 347.52 23.0127 347.836 23.4111C348.164 23.8096 348.589 24.1465 349.111 24.4219C349.632 24.6973 350.227 24.8936 350.895 25.0107C351.575 25.1396 352.284 25.1631 353.022 25.0811C353.772 25.0107 354.463 24.8525 355.096 24.6064C355.741 24.3486 356.288 24.0352 356.74 23.666C357.191 23.2969 357.539 22.8838 357.786 22.4268C358.02 21.9697 358.114 21.4951 358.067 21.0029ZM361.161 21.0557C361.161 21.6182 360.967 22.1982 360.58 22.7959C360.194 23.4053 359.643 23.9561 358.928 24.4482C358.213 24.9404 357.358 25.3506 356.362 25.6787C355.354 25.9951 354.241 26.1533 353.022 26.1533C352.084 26.1533 351.164 26.042 350.262 25.8193C349.36 25.6084 348.554 25.2949 347.845 24.8789C347.136 24.4629 346.559 23.9619 346.114 23.376C345.68 22.7783 345.463 22.1045 345.463 21.3545C345.463 20.9678 345.522 20.5693 345.639 20.1592C345.768 19.7373 345.947 19.3125 346.175 18.8848C346.404 18.457 346.682 18.0264 347.01 17.5928C347.338 17.1592 347.719 16.7314 348.153 16.3096C348.715 15.7471 349.295 15.2607 349.893 14.8506C350.479 14.4521 351.038 14.1475 351.572 13.9365C352.105 13.7256 352.588 13.626 353.022 13.6377C353.455 13.6377 353.801 13.7607 354.059 14.0068C354.27 14.2295 354.39 14.5225 354.419 14.8857C354.449 15.249 354.393 15.6592 354.252 16.1162C354.182 16.3389 354.238 16.4268 354.419 16.3799C354.601 16.333 354.692 16.3154 354.692 16.3271C355.606 15.9404 356.429 15.7412 357.161 15.7295C357.894 15.7178 358.407 15.9229 358.7 16.3447C358.852 16.5674 358.925 16.8311 358.919 17.1357C358.913 17.4404 358.84 17.7686 358.7 18.1201C358.629 18.2959 358.626 18.4072 358.691 18.4541C358.755 18.501 358.852 18.5479 358.981 18.5947C359.496 18.7471 359.989 19.0225 360.457 19.4209C360.926 19.8193 361.161 20.3643 361.161 21.0557ZM360.422 14.7803C360.703 15.0967 360.885 15.46 360.967 15.8701C361.049 16.2803 361.026 16.6729 360.897 17.0479C360.85 17.2119 360.753 17.3291 360.607 17.3994C360.46 17.4697 360.311 17.4814 360.159 17.4346C360.006 17.3877 359.892 17.291 359.816 17.1445C359.74 16.998 359.725 16.8486 359.772 16.6963C359.83 16.4971 359.842 16.3008 359.807 16.1074C359.772 15.9141 359.684 15.7354 359.543 15.5713C359.403 15.4189 359.236 15.3135 359.042 15.2549C358.849 15.1963 358.653 15.1846 358.453 15.2197C358.301 15.2549 358.155 15.2285 358.014 15.1406C357.873 15.0527 357.786 14.9326 357.75 14.7803C357.715 14.6162 357.742 14.4668 357.829 14.332C357.917 14.1973 358.043 14.1123 358.207 14.0771C358.606 13.9834 359.001 13.998 359.394 14.1211C359.786 14.2441 360.129 14.4639 360.422 14.7803ZM362.233 13.1455C362.83 13.8018 363.208 14.5459 363.367 15.3779C363.525 16.21 363.481 17.0186 363.235 17.8037C363.176 17.9912 363.062 18.126 362.892 18.208C362.722 18.29 362.549 18.3018 362.373 18.2432C362.186 18.1846 362.048 18.0732 361.96 17.9092C361.872 17.7451 361.858 17.5693 361.916 17.3818C362.092 16.8311 362.124 16.2568 362.013 15.6592C361.902 15.0615 361.635 14.5342 361.213 14.0771C360.791 13.6084 360.29 13.2861 359.71 13.1104C359.13 12.9346 358.559 12.9053 357.996 13.0225C357.809 13.0693 357.633 13.04 357.469 12.9346C357.305 12.8291 357.205 12.6826 357.17 12.4951C357.123 12.3076 357.153 12.1348 357.258 11.9766C357.364 11.8184 357.51 11.7217 357.698 11.6865C358.506 11.5107 359.318 11.5459 360.132 11.792C360.947 12.0381 361.647 12.4893 362.233 13.1455Z" fill="white"/>
</g>
<g clip-path="url(#clip7_1_213)">
<path d="M392.73 9.7002C391.488 9.7002 390.322 9.93457 389.232 10.4033C388.142 10.8838 387.19 11.5312 386.376 12.3457C385.561 13.1602 384.914 14.1123 384.433 15.2021C383.964 16.292 383.73 17.458 383.73 18.7002C383.73 19.9424 383.964 21.1084 384.433 22.1982C384.914 23.2881 385.561 24.2402 386.376 25.0547C387.19 25.8691 388.142 26.5166 389.232 26.9971C390.322 27.4658 391.488 27.7002 392.73 27.7002C393.972 27.7002 395.138 27.4658 396.228 26.9971C397.318 26.5166 398.27 25.8691 399.085 25.0547C399.899 24.2402 400.547 23.2881 401.027 22.1982C401.496 21.1084 401.73 19.9424 401.73 18.7002C401.73 17.458 401.496 16.292 401.027 15.2021C400.547 14.1123 399.899 13.1602 399.085 12.3457C398.27 11.5312 397.318 10.8838 396.228 10.4033C395.138 9.93457 393.972 9.7002 392.73 9.7002ZM392.73 11.7393C393.691 11.7393 394.593 11.9209 395.437 12.2842C396.281 12.6475 397.019 13.1455 397.652 13.7783C398.285 14.4111 398.783 15.1494 399.146 15.9932C399.509 16.8369 399.691 17.7393 399.691 18.7002C399.691 19.6611 399.509 20.5635 399.146 21.4072C398.783 22.251 398.285 22.9893 397.652 23.6221C397.019 24.2549 396.281 24.7529 395.437 25.1162C394.593 25.4795 393.691 25.6611 392.73 25.6611C391.769 25.6611 390.867 25.4795 390.023 25.1162C389.179 24.7529 388.441 24.2549 387.808 23.6221C387.175 22.9893 386.677 22.251 386.314 21.4072C385.951 20.5635 385.769 19.6611 385.769 18.7002C385.769 17.7393 385.951 16.8369 386.314 15.9932C386.677 15.1494 387.175 14.4111 387.808 13.7783C388.441 13.1455 389.179 12.6475 390.023 12.2842C390.867 11.9209 391.769 11.7393 392.73 11.7393ZM396.58 19.0166L390.164 22.5498V15.4834L396.58 19.0166Z" fill="white"/>
</g>
<g clip-path="url(#clip8_1_213)">
<path d="M427.555 14.499C427.555 14.2178 427.473 13.9951 427.309 13.8311C427.145 13.667 426.922 13.585 426.641 13.585C426.372 13.585 426.123 13.667 425.894 13.8311C425.666 13.9951 425.551 14.2178 425.551 14.499C425.551 14.7686 425.666 14.9854 425.894 15.1494C426.123 15.3135 426.372 15.3955 426.641 15.3955C426.922 15.3955 427.145 15.3135 427.309 15.1494C427.473 14.9854 427.555 14.7686 427.555 14.499ZM435.026 19.5791C435.026 19.4033 434.944 19.2393 434.78 19.0869C434.616 18.9346 434.393 18.8584 434.112 18.8584C433.936 18.8584 433.772 18.9346 433.62 19.0869C433.467 19.2393 433.391 19.4033 433.391 19.5791C433.391 19.7666 433.467 19.9365 433.62 20.0889C433.772 20.2412 433.936 20.3174 434.112 20.3174C434.393 20.3174 434.616 20.2412 434.78 20.0889C434.944 19.9365 435.026 19.7666 435.026 19.5791ZM432.653 14.499C432.653 14.2178 432.571 13.9951 432.407 13.8311C432.243 13.667 432.026 13.585 431.756 13.585C431.475 13.585 431.22 13.667 430.992 13.8311C430.763 13.9951 430.649 14.2178 430.649 14.499C430.649 14.7686 430.763 14.9854 430.992 15.1494C431.22 15.3135 431.475 15.3955 431.756 15.3955C432.026 15.3955 432.243 15.3135 432.407 15.1494C432.571 14.9854 432.653 14.7686 432.653 14.499ZM439.034 19.5791C439.034 19.4033 438.949 19.2393 438.779 19.0869C438.609 18.9346 438.389 18.8584 438.12 18.8584C437.944 18.8584 437.78 18.9346 437.628 19.0869C437.475 19.2393 437.399 19.4033 437.399 19.5791C437.399 19.7666 437.475 19.9365 437.628 20.0889C437.78 20.2412 437.944 20.3174 438.12 20.3174C438.389 20.3174 438.609 20.2412 438.779 20.0889C438.949 19.9365 439.034 19.7666 439.034 19.5791ZM436.362 15.5889C436.245 15.5771 436.128 15.5684 436.01 15.5625C435.893 15.5566 435.776 15.5537 435.659 15.5537C434.792 15.5537 433.983 15.7061 433.233 16.0107C432.483 16.3154 431.83 16.7285 431.273 17.25C430.716 17.7715 430.274 18.3779 429.946 19.0693C429.629 19.7725 429.471 20.5225 429.471 21.3193C429.471 21.5771 429.492 21.835 429.533 22.0928C429.574 22.3506 429.629 22.5967 429.7 22.8311C429.583 22.8428 429.468 22.8516 429.357 22.8574C429.246 22.8633 429.131 22.8662 429.014 22.8662C428.557 22.8662 428.132 22.8281 427.74 22.752C427.347 22.6758 426.922 22.5967 426.465 22.5146L423.934 23.7803L424.655 21.6006C424.198 21.2725 423.788 20.9268 423.424 20.5635C423.061 20.2002 422.756 19.8135 422.51 19.4033C422.264 18.9932 422.071 18.5596 421.93 18.1025C421.801 17.6455 421.737 17.1709 421.737 16.6787C421.737 15.8115 421.93 14.9971 422.317 14.2354C422.692 13.4854 423.211 12.832 423.873 12.2754C424.535 11.7188 425.305 11.2822 426.184 10.9658C427.075 10.6494 428.018 10.4912 429.014 10.4912C429.917 10.4912 430.772 10.6201 431.581 10.8779C432.401 11.1357 433.139 11.4902 433.795 11.9414C434.452 12.3926 435.003 12.9346 435.448 13.5674C435.905 14.1885 436.21 14.8623 436.362 15.5889ZM442.303 21.2314C442.303 22.0518 442.063 22.8193 441.583 23.5342C441.102 24.249 440.493 24.876 439.754 25.415L440.317 27.2432L438.313 26.1357C437.95 26.2295 437.584 26.3174 437.214 26.3994C436.845 26.4814 436.479 26.5225 436.116 26.5225C435.249 26.5225 434.44 26.3818 433.69 26.1006C432.94 25.8193 432.287 25.4414 431.73 24.9668C431.173 24.4922 430.737 23.9326 430.42 23.2881C430.092 22.6436 429.928 21.958 429.928 21.2314C429.928 20.5049 430.092 19.8193 430.42 19.1748C430.737 18.5303 431.173 17.9707 431.73 17.4961C432.287 17.0215 432.94 16.6436 433.69 16.3623C434.44 16.0811 435.249 15.9404 436.116 15.9404C436.936 15.9404 437.721 16.0811 438.471 16.3623C439.221 16.6436 439.88 17.0215 440.449 17.4961C441.017 17.9707 441.465 18.5303 441.794 19.1748C442.133 19.8193 442.303 20.5049 442.303 21.2314Z" fill="white"/>
</g>
<g clip-path="url(#clip9_1_213)">
<path d="M438.734 47.4346C437.996 47.0947 437.232 46.8018 436.441 46.5557C435.65 46.3096 434.838 46.1162 434.006 45.9756C433.994 45.9756 433.98 45.9785 433.962 45.9844C433.944 45.9902 433.936 45.999 433.936 46.0107C433.83 46.1865 433.725 46.3857 433.619 46.6084C433.514 46.8311 433.42 47.0361 433.338 47.2236C432.447 47.083 431.56 47.0127 430.675 47.0127C429.79 47.0127 428.908 47.083 428.029 47.2236C427.947 47.0244 427.854 46.8164 427.748 46.5996C427.643 46.3828 427.537 46.1865 427.432 46.0107C427.42 45.999 427.408 45.9902 427.397 45.9844C427.385 45.9785 427.373 45.9756 427.361 45.9756C426.529 46.1162 425.718 46.3096 424.927 46.5557C424.136 46.8018 423.371 47.0947 422.633 47.4346C422.621 47.4463 422.612 47.4521 422.607 47.4521C422.601 47.4521 422.598 47.458 422.598 47.4697C421.836 48.5947 421.215 49.7139 420.734 50.8271C420.242 51.9404 419.861 53.0479 419.592 54.1494C419.322 55.251 419.158 56.3467 419.1 57.4365C419.041 58.5264 419.059 59.6104 419.152 60.6885C419.164 60.7002 419.17 60.7119 419.17 60.7236C419.17 60.7354 419.176 60.7412 419.188 60.7412C419.692 61.1045 420.184 61.4385 420.664 61.7432C421.156 62.0361 421.646 62.3027 422.132 62.543C422.618 62.7832 423.096 62.9971 423.565 63.1846C424.045 63.3721 424.52 63.5361 424.988 63.6768C425.012 63.6885 425.029 63.6914 425.041 63.6855C425.053 63.6797 425.065 63.6709 425.076 63.6592C425.299 63.3545 425.51 63.041 425.709 62.7188C425.908 62.3965 426.09 62.0654 426.254 61.7256C426.266 61.7021 426.269 61.6816 426.263 61.6641C426.257 61.6465 426.242 61.6318 426.219 61.6201C425.902 61.5029 425.595 61.3711 425.296 61.2246C424.997 61.0781 424.701 60.9229 424.408 60.7588C424.385 60.7471 424.373 60.7266 424.373 60.6973C424.373 60.668 424.385 60.6475 424.408 60.6357C424.467 60.5889 424.526 60.542 424.584 60.4951C424.643 60.4482 424.701 60.4014 424.76 60.3545C424.772 60.3428 424.783 60.3369 424.795 60.3369C424.807 60.3369 424.818 60.3369 424.83 60.3369C425.779 60.7705 426.746 61.0986 427.731 61.3213C428.715 61.5322 429.702 61.6377 430.692 61.6377C431.683 61.6377 432.664 61.5322 433.637 61.3213C434.621 61.0986 435.582 60.7705 436.52 60.3369C436.531 60.3369 436.543 60.3369 436.555 60.3369C436.567 60.3369 436.578 60.3428 436.59 60.3545C436.649 60.4014 436.707 60.4482 436.766 60.4951C436.824 60.542 436.889 60.5889 436.959 60.6357C436.971 60.6475 436.977 60.668 436.977 60.6973C436.977 60.7266 436.965 60.7471 436.942 60.7588C436.649 60.9229 436.353 61.0781 436.054 61.2246C435.755 61.3711 435.447 61.5029 435.131 61.6201C435.108 61.6318 435.093 61.6465 435.087 61.6641C435.081 61.6816 435.084 61.7021 435.096 61.7256C435.272 62.0654 435.459 62.3965 435.658 62.7188C435.858 63.041 436.063 63.3545 436.274 63.6592C436.285 63.6709 436.3 63.6797 436.317 63.6855C436.335 63.6914 436.35 63.6885 436.361 63.6768C436.83 63.5361 437.305 63.3721 437.785 63.1846C438.266 62.9971 438.749 62.7832 439.235 62.543C439.722 62.3027 440.205 62.0361 440.686 61.7432C441.178 61.4385 441.67 61.1045 442.162 60.7412C442.174 60.7412 442.183 60.7354 442.189 60.7236C442.194 60.7119 442.197 60.7002 442.197 60.6885C442.326 59.4346 442.338 58.2217 442.233 57.0498C442.139 55.8779 441.945 54.7441 441.652 53.6484C441.359 52.5527 440.967 51.4893 440.475 50.458C439.994 49.4268 439.426 48.4307 438.77 47.4697C438.758 47.458 438.752 47.4521 438.752 47.4521C438.752 47.4521 438.746 47.4463 438.734 47.4346ZM426.834 58.0518C426.26 58.0518 425.768 57.8232 425.358 57.3662C424.947 56.9092 424.742 56.3584 424.742 55.7139C424.742 55.0693 424.944 54.5186 425.349 54.0615C425.753 53.6045 426.248 53.376 426.834 53.376C427.42 53.376 427.915 53.6045 428.319 54.0615C428.724 54.5186 428.926 55.0693 428.926 55.7139C428.926 56.3584 428.721 56.9092 428.311 57.3662C427.901 57.8232 427.408 58.0518 426.834 58.0518ZM434.551 58.0518C433.977 58.0518 433.484 57.8232 433.074 57.3662C432.664 56.9092 432.459 56.3584 432.459 55.7139C432.459 55.0693 432.661 54.5186 433.066 54.0615C433.47 53.6045 433.965 53.376 434.551 53.376C435.137 53.376 435.635 53.6045 436.045 54.0615C436.455 54.5186 436.654 55.0693 436.643 55.7139C436.643 56.3584 436.441 56.9092 436.036 57.3662C435.632 57.8232 435.137 58.0518 434.551 58.0518Z" fill="white"/>
</g>
<defs>
<clipPath id="clip0_1_213">
<rect width="15.44" height="18" fill="white" transform="matrix(1 0 0 -1 133.83 27.7002)"/>
</clipPath>
<clipPath id="clip1_1_213">
<rect width="10.59" height="18" fill="white" transform="matrix(1 0 0 -1 169.27 27.7002)"/>
</clipPath>
<clipPath id="clip2_1_213">
<rect width="18" height="18" fill="white" transform="matrix(1 0 0 -1 199.86 27.7002)"/>
</clipPath>
<clipPath id="clip3_1_213">
<rect width="16.72" height="18" fill="white" transform="matrix(1 0 0 -1 237.86 27.7002)"/>
</clipPath>
<clipPath id="clip4_1_213">
<rect width="15.44" height="18.1585" fill="white" transform="matrix(1 0 0 -1 274.563 27.5415)"/>
</clipPath>
<clipPath id="clip5_1_213">
<rect width="15.44" height="18" fill="white" transform="matrix(1 0 0 -1 310.02 27.7002)"/>
</clipPath>
<clipPath id="clip6_1_213">
<rect width="18.27" height="18" fill="white" transform="matrix(1 0 0 -1 345.46 27.7002)"/>
</clipPath>
<clipPath id="clip7_1_213">
<rect width="18" height="18" fill="white" transform="matrix(1 0 0 -1 383.73 27.7002)"/>
</clipPath>
<clipPath id="clip8_1_213">
<rect width="20.58" height="18" fill="white" transform="matrix(1 0 0 -1 421.73 27.7002)"/>
</clipPath>
<clipPath id="clip9_1_213">
<rect width="23.25" height="18.0117" fill="white" transform="matrix(1 0 0 -1 419.06 63.6885)"/>
</clipPath>
</defs>
</svg>
