<svg width="88" height="41" viewBox="0 0 88 41" fill="none" xmlns="http://www.w3.org/2000/svg">
<g clip-path="url(#clip0_2_302)">
<mask id="mask0_2_302" style="mask-type:alpha" maskUnits="userSpaceOnUse" x="0" y="0" width="88" height="41">
<path d="M87.84 0.839958H0.839966V40.84H87.84V0.839958Z" fill="#C4C4C4"/>
</mask>
<g mask="url(#mask0_2_302)">
<mask id="mask1_2_302" style="mask-type:alpha" maskUnits="userSpaceOnUse" x="45" y="13" width="28" height="28">
<path fill-rule="evenodd" clip-rule="evenodd" d="M45.4103 13.4113H72.7916V40.8397H45.4103V13.4113Z" fill="white"/>
</mask>
<g mask="url(#mask1_2_302)">
<path fill-rule="evenodd" clip-rule="evenodd" d="M70.5273 27.8296C70.1653 33.8131 65.1957 38.5522 59.1263 38.5522C52.8109 38.5522 47.6995 33.4373 47.6995 27.1245C47.6995 22.0543 50.9973 17.7555 55.5679 16.26C55.6513 15.7037 55.6943 15.1344 55.6943 14.5539C55.6943 14.3157 55.6857 14.0818 55.6745 13.8488C49.7693 15.3795 45.4103 20.7429 45.4103 27.1245C45.4103 34.6971 51.5477 40.8396 59.1263 40.8396C66.3274 40.8396 72.236 35.281 72.7916 28.2166C72.0167 28.1495 71.26 28.0197 70.5273 27.8296ZM59.1268 15.6961C64.8532 15.6961 69.6017 19.9158 70.4264 25.4203C71.1797 25.6645 71.9674 25.8348 72.7826 25.9216C72.1721 18.9106 66.2893 13.4113 59.1268 13.4113C58.7253 13.4113 58.3297 13.4293 57.941 13.462C57.9659 13.8223 57.9814 14.1861 57.9814 14.5541C57.9814 14.96 57.9608 15.3625 57.9298 15.7581C58.3219 15.7168 58.7201 15.6961 59.1268 15.6961Z" fill="#00A651"/>
</g>
<mask id="mask2_2_302" style="mask-type:alpha" maskUnits="userSpaceOnUse" x="15" y="13" width="29" height="28">
<path fill-rule="evenodd" clip-rule="evenodd" d="M15.6964 13.4118H43.0802V40.8399H15.6964V13.4118Z" fill="white"/>
</mask>
<g mask="url(#mask2_2_302)">
<path fill-rule="evenodd" clip-rule="evenodd" d="M43.0802 28.2162C42.5247 35.2815 36.6186 40.8401 29.4123 40.8401C21.8354 40.8401 15.6964 34.6976 15.6964 27.1241C15.6964 20.7434 20.0563 15.3799 25.9624 13.8493C25.9727 14.0814 25.9804 14.3162 25.9804 14.5535C25.9804 15.1349 25.9366 15.7041 25.854 16.2605C21.2843 17.7559 17.9873 22.0548 17.9873 27.1241C17.9873 33.4369 23.097 38.5527 29.4123 38.5527C35.4844 38.5527 40.454 33.8135 40.8161 27.8301C41.5461 28.0193 42.3062 28.15 43.0802 28.2162ZM28.2159 15.7585C28.2486 15.363 28.2693 14.9605 28.2693 14.5538C28.2693 14.1866 28.2537 13.8228 28.2288 13.4625C28.6175 13.4298 29.0131 13.4118 29.413 13.4118C36.5763 13.4118 42.466 18.9111 43.0765 25.9221C42.2561 25.8344 41.4658 25.665 40.7142 25.4208C39.8895 19.9163 35.1402 15.6958 29.413 15.6958C29.0079 15.6958 28.6081 15.7173 28.2159 15.7585Z" fill="#FCB131"/>
</g>
<mask id="mask3_2_302" style="mask-type:alpha" maskUnits="userSpaceOnUse" x="60" y="0" width="28" height="29">
<path fill-rule="evenodd" clip-rule="evenodd" d="M60.3047 0.839958H87.6929V28.2684H60.3047V0.839958Z" fill="white"/>
</mask>
<g mask="url(#mask3_2_302)">
<path fill-rule="evenodd" clip-rule="evenodd" d="M87.6929 14.5543C87.6929 22.1286 81.5546 28.2685 73.9786 28.2685C66.8076 28.2685 60.9265 22.7701 60.3159 15.7582C61.1363 15.8433 61.9214 16.0153 62.6773 16.2604C63.4994 21.7631 68.2445 25.9837 73.9786 25.9837C80.2888 25.9837 85.4054 20.8653 85.4054 14.5543C85.4054 8.24401 80.2888 3.12567 73.9786 3.12567C67.9014 3.12567 62.9353 7.86564 62.5733 13.85C61.838 13.6608 61.0847 13.5301 60.3047 13.4621C60.8663 6.39773 66.7715 0.839958 73.9786 0.839958C81.5546 0.839958 87.6929 6.98077 87.6929 14.5543Z" fill="#EE334E"/>
</g>
<mask id="mask4_2_302" style="mask-type:alpha" maskUnits="userSpaceOnUse" x="30" y="0" width="28" height="29">
<path fill-rule="evenodd" clip-rule="evenodd" d="M30.5948 0.839958H57.9803V28.2684H30.5948V0.839958Z" fill="white"/>
</mask>
<g mask="url(#mask4_2_302)">
<path fill-rule="evenodd" clip-rule="evenodd" d="M44.2638 25.9839C38.5358 25.9839 33.7864 21.7633 32.9625 16.2606C32.2084 16.0155 31.4224 15.8435 30.602 15.7584C31.2134 22.7703 37.0945 28.2688 44.2638 28.2688C44.6663 28.2688 45.0627 28.2524 45.4531 28.2172C45.4265 27.8594 45.4102 27.494 45.4102 27.125C45.4102 26.72 45.4309 26.3176 45.4643 25.9229C45.0696 25.9633 44.6697 25.9839 44.2638 25.9839ZM44.2635 0.839958C37.0572 0.839958 31.1529 6.39773 30.5948 13.4621C31.3713 13.5301 32.123 13.6608 32.8608 13.85C33.2203 7.86564 38.1897 3.12567 44.2635 3.12567C50.5788 3.12567 55.6938 8.24401 55.6938 14.5543C55.6938 19.6236 52.3942 23.9241 47.8228 25.4213C47.7411 25.9751 47.6989 26.5452 47.6989 27.1248C47.6989 27.363 47.7007 27.5986 47.7171 27.83C53.6214 26.3001 57.9803 20.9367 57.9803 14.5543C57.9803 6.98077 51.8421 0.839958 44.2635 0.839958Z" fill="black"/>
</g>
<mask id="mask5_2_302" style="mask-type:alpha" maskUnits="userSpaceOnUse" x="0" y="0" width="29" height="29">
<path fill-rule="evenodd" clip-rule="evenodd" d="M0.839966 0.839958H28.2672V28.2684H0.839966V0.839958Z" fill="white"/>
</mask>
<g mask="url(#mask5_2_302)">
<path fill-rule="evenodd" clip-rule="evenodd" d="M28.2667 14.5543C28.2667 6.98077 22.1285 0.839958 14.5507 0.839958C6.9798 0.839958 0.838989 6.98077 0.838989 14.5543C0.838989 22.1286 6.9798 28.2685 14.5507 28.2685C14.9523 28.2685 15.3453 28.2522 15.7374 28.2178C15.7108 27.8592 15.6944 27.4937 15.6944 27.1248C15.6944 26.7198 15.7159 26.3173 15.7477 25.9226C15.3539 25.963 14.9557 25.9837 14.5507 25.9837C8.23961 25.9837 3.12299 20.8653 3.12299 14.5543C3.12299 8.24401 8.23961 3.12567 14.5507 3.12567C20.8652 3.12567 25.9784 8.24401 25.9784 14.5543C25.9784 19.6245 22.6788 23.9241 18.1083 25.4213C18.0274 25.9751 17.9853 26.5452 17.9853 27.1248C17.9853 27.363 17.987 27.5986 18.0025 27.83C23.9077 26.3001 28.2667 20.9367 28.2667 14.5543Z" fill="#0081C8"/>
</g>
</g>
</g>
<defs>
<clipPath id="clip0_2_302">
<rect width="87" height="40" fill="white" transform="translate(0.839966 0.839958)"/>
</clipPath>
</defs>
</svg>
