<svg width="19" height="23" viewBox="0 0 19 23" fill="none" xmlns="http://www.w3.org/2000/svg">
<path d="M9.65133 9.72225C9.55084 9.70893 9.44916 9.70893 9.34866 9.72225C8.27916 9.68424 7.26553 9.20874 6.52191 8.39621C5.77828 7.58367 5.3629 6.49773 5.3635 5.36779C5.3635 2.95752 7.20475 1.00001 9.5 1.00001C10.5839 0.99802 11.6251 1.44585 12.3991 2.24696C13.1732 3.04806 13.6181 4.13827 13.6379 5.28255C13.6578 6.42682 13.251 7.5335 12.5052 8.36401C11.7595 9.19451 10.7345 9.68232 9.65133 9.72225ZM18 18.5111C15.6824 20.7603 12.6478 22.0059 9.5 22C6.22107 22 3.24481 20.6817 1 18.5111C1.12611 17.2593 1.88279 16.0342 3.2322 15.0754C6.68769 12.6519 12.3375 12.6519 15.7678 15.0754C17.1172 16.0342 17.8739 17.2593 18 18.5111Z" stroke="#CBCBCB" stroke-linecap="round" stroke-linejoin="round"/>
</svg>
