<svg width="131" height="131" viewBox="0 0 131 131" fill="none" xmlns="http://www.w3.org/2000/svg">
<g id="circle-flags:olympics" clip-path="url(#clip0_2_7)">
<g id="Mask group">
<mask id="mask0_2_7" style="mask-type:luminance" maskUnits="userSpaceOnUse" x="0" y="0" width="131" height="131">
<g id="Group">
<path id="Vector" d="M65.5 131C101.675 131 131 101.675 131 65.5C131 29.3253 101.675 0 65.5 0C29.3253 0 0 29.3253 0 65.5C0 101.675 29.3253 131 65.5 131Z" fill="white"/>
</g>
</mask>
<g mask="url(#mask0_2_7)">
<g id="Group_2">
<path id="Vector_2" d="M28.0422 39.1721C23.1877 39.1856 18.5359 41.12 15.1032 44.5526C11.6706 47.9853 9.73616 52.6371 9.72266 57.4916C9.73616 62.3461 11.6706 66.9979 15.1032 70.4305C18.5359 73.8632 23.1877 75.7976 28.0422 75.8111C32.8967 75.7976 37.5485 73.8632 40.9811 70.4305C44.4138 66.9979 46.3482 62.3461 46.3617 57.4916C46.3482 52.6371 44.4138 47.9853 40.9811 44.5526C37.5485 41.12 32.8967 39.1856 28.0422 39.1721ZM28.0422 44.2892C35.3598 44.2892 41.2445 50.174 41.2445 57.4916C41.2445 64.8092 35.3598 70.6939 28.0422 70.6939C20.7246 70.6939 14.8398 64.8092 14.8398 57.4916C14.8398 50.174 20.7246 44.2892 28.0422 44.2892Z" fill="#338AF3"/>
<path id="Vector_3" d="M65.5 39.1721C60.6455 39.1856 55.9937 41.12 52.5611 44.5526C49.1284 47.9853 47.194 52.6371 47.1805 57.4916C47.194 62.3461 49.1284 66.9979 52.5611 70.4305C55.9937 73.8632 60.6455 75.7976 65.5 75.8111C70.3545 75.7976 75.0063 73.8632 78.439 70.4305C81.8716 66.9979 83.806 62.3461 83.8195 57.4916C83.806 52.6371 81.8716 47.9853 78.439 44.5526C75.0063 41.12 70.3545 39.1856 65.5 39.1721ZM65.5 44.2892C72.8176 44.2892 78.7024 50.174 78.7024 57.4916C78.7024 64.8092 72.8176 70.6939 65.5 70.6939C58.1824 70.6939 52.2977 64.8092 52.2977 57.4916C52.2977 50.174 58.1824 44.2892 65.5 44.2892Z" fill="#333333"/>
<path id="Vector_4" d="M102.958 39.1721C98.1033 39.1856 93.4516 41.12 90.0189 44.5526C86.5862 47.9853 84.6518 52.6371 84.6383 57.4916C84.6518 62.3461 86.5862 66.9979 90.0189 70.4305C93.4516 73.8632 98.1033 75.7976 102.958 75.8111C107.812 75.7976 112.464 73.8632 115.897 70.4305C119.329 66.9979 121.264 62.3461 121.277 57.4916C121.264 52.6371 119.329 47.9853 115.897 44.5526C112.464 41.12 107.812 39.1856 102.958 39.1721ZM102.958 44.2892C110.275 44.2892 116.16 50.174 116.16 57.4916C116.16 64.8092 110.275 70.6939 102.958 70.6939C95.6403 70.6939 89.7555 64.8092 89.7555 57.4916C89.7555 50.174 95.6403 44.2892 102.958 44.2892Z" fill="#D80027"/>
<path id="Vector_5" d="M46.7711 55.1888C41.9166 55.2023 37.2648 57.1368 33.8321 60.5694C30.3995 64.0021 28.465 68.6539 28.4515 73.5084C28.465 78.3629 30.3995 83.0147 33.8321 86.4473C37.2648 89.88 41.9166 91.8144 46.7711 91.8279C51.6256 91.8144 56.2774 89.88 59.71 86.4473C63.1427 83.0147 65.0771 78.3629 65.0906 73.5084C65.0771 68.6539 63.1427 64.0021 59.71 60.5694C56.2774 57.1368 51.6256 55.2023 46.7711 55.1888ZM46.7711 60.306C54.0886 60.306 59.9734 66.1908 59.9734 73.5084C59.9734 80.826 54.0886 86.7107 46.7711 86.7107C39.4535 86.7107 33.5687 80.826 33.5687 73.5084C33.5687 66.1908 39.4535 60.306 46.7711 60.306Z" fill="#FFDA44"/>
<path id="Vector_6" d="M84.2289 55.1888C79.3744 55.2023 74.7226 57.1368 71.2899 60.5694C67.8573 64.0021 65.9229 68.6539 65.9094 73.5084C65.9229 78.3629 67.8573 83.0147 71.2899 86.4473C74.7226 89.88 79.3744 91.8144 84.2289 91.8279C89.0834 91.8144 93.7352 89.88 97.1678 86.4473C100.6 83.0147 102.535 78.3629 102.548 73.5084C102.535 68.6539 100.6 64.0021 97.1678 60.5694C93.7352 57.1368 89.0834 55.2023 84.2289 55.1888ZM84.2289 60.306C91.5465 60.306 97.4312 66.1908 97.4312 73.5084C97.4312 80.826 91.5465 86.7107 84.2289 86.7107C76.9113 86.7107 71.0266 80.826 71.0266 73.5084C71.0266 66.1908 76.9113 60.306 84.2289 60.306Z" fill="#6DA544"/>
<path id="Vector_7" d="M42.7029 46.4896L38.6092 49.5599C40.3259 51.8431 41.2542 54.6223 41.2542 57.4788C41.2542 60.3353 40.3259 63.1145 38.6092 65.3976L42.7029 68.4679C45.08 65.2974 46.3649 61.4415 46.3649 57.4788C46.3649 53.5161 45.08 49.6602 42.7029 46.4896Z" fill="#338AF3"/>
<path id="Vector_8" d="M80.1607 46.4896L76.067 49.5599C77.7837 51.8431 78.712 54.6223 78.712 57.4788C78.712 60.3353 77.7837 63.1145 76.067 65.3976L80.1607 68.4679C82.5378 65.2974 83.8227 61.4415 83.8227 57.4788C83.8227 53.5161 82.5378 49.6602 80.1607 46.4896ZM57.5684 68.0586L54.498 72.1523C57.6734 74.5292 61.5336 75.813 65.5 75.8111V70.6939C62.6402 70.6995 59.8562 69.7745 57.5684 68.0586Z" fill="#333333"/>
<path id="Vector_9" d="M95.0261 68.0586L91.9558 72.1523C95.1312 74.5292 98.9913 75.813 102.958 75.8111V70.6939C100.098 70.6995 97.314 69.7745 95.0261 68.0586Z" fill="#D80027"/>
</g>
</g>
</g>
</g>
<defs>
<clipPath id="clip0_2_7">
<rect width="131" height="131" fill="white"/>
</clipPath>
</defs>
</svg>
